<svg xmlns="http://www.w3.org/2000/svg" width="214.61" height="60" viewBox="0 0 3162 884" preserveAspectRatio="xMidYMid meet" xmlnsV="https://vecta.io/nano"><path d="M953.5 11.4c-.3 1.1-.4 195.8-.3 432.6l.3 430.5h6 6l.1-423-.4-432.7-.5-9.7h-5.3c-4.7.1-5.5.4-5.9 2.3zM311.9 152c-2.6.4-5.5 1.2-6.5 1.8-1.1.5-3.7 1.2-5.9 1.6s-8.3 2.8-13.5 5.3c-17.4 8.4-30.3 24.6-35.1 43.8-6 24.1-2.1 42 12.5 57.3 5.8 6.2 17.1 14 21.9 15.3 1.8.4 5.8 1.7 9 2.9 10.7 3.8 30.3 3.7 44.2-.3 6.6-1.8 20.1-9.7 24.1-13.9 6.8-7.2 12.4-16.7 15-25.6 2.4-8 2.5-9.7 2-21.7-.3-7.2-1.2-15.7-2-19-2-7.9-9.6-22.8-14.9-28.9-5.3-6.3-17.2-14.1-22.7-15-2.3-.4-5.4-1.3-6.9-2-3.4-1.7-15.3-2.6-21.2-1.6zm20.4 27c6.7 2.5 12.8 7.6 16.1 13.6 1.4 2.6 2.6 5.1 2.6 5.5 0 1.4-7.7-2.8-11.8-6.5-5.7-5.1-13.2-9.5-15-8.9-2.8 1-5.2 3.5-5.2 5.5 0 2.4 7 9.2 16.8 16.2 18.3 13.2 18.3 13.2 19.6 20.1.6 3.2-.5 6-2.2 5.4-1.1-.4-13.6-10.7-21.1-17.5-15.8-14.1-19.4-15.6-23.4-10.2-2.9 4-1.6 6 9.9 15.3 24.7 19.9 30.3 25 30.4 26.7 0 1.5-4 4.8-5.9 4.8-2 0-2 0-21.4-18.4-7.6-7.2-15.2-13.9-16.9-14.8-2.8-1.5-3.4-1.6-5.9-.2-2.1 1.1-2.9 2.2-2.9 4.2 0 2.3 2.1 4.9 10.3 12.8 5.6 5.5 13.1 12.6 16.6 15.7 5.9 5.2 6.3 5.9 4.9 7.3-.8.9-3.4 1.8-5.6 2.1-3.6.5-4.4.2-6.4-2.1l-8.3-9.3c-3.3-3.6-7.2-8.3-8.8-10.4-4.2-5.8-7.5-6.1-12.1-1.1-2.4 2.8-1.6 4.6 5.4 12.2 3.3 3.6 6 6.8 6 7.2 0 1.8-4.1.5-9.6-3-7.2-4.7-8.4-6.1-12.3-13.6-2.8-5.2-3.1-6.7-3.1-14.5 0-16.9 9-33.5 21.5-39.8 12.4-6.3 27.8-8 37.8-4.3zm2290.9 27.2c-.6.7-2 6.5-3.1 12.8a744.16 744.16 0 0 1-4.7 22.5c-1.4 6-2.9 13.2-3.4 16-.4 2.7-1.5 7.7-2.3 11-.9 3.3-2 8.5-2.6 11.5l-3.6 17.5-8 38-7.5 35.5-4 18.5-3 14.5-3 14.5-20 94.5c-1.1 4.7-2.8 13-4 18.5l-4 19-14 66.5-5.5 25.5c-2.2 9.1-7.5 36.2-7.5 38.5 0 2 .4 2 32.7 1.8l32.7-.3.8-3 2.8-12.5 8-38 8.6-41.5 4.5-21.5c1-4.7 15.5-31 17-31 .5 0 1.3.8 1.8 1.8.6 1.1 1.3 29.8 1.7 72.3l1.6 72.1c.8 1.7 3.3 1.8 31.1 1.8 16.6 0 30.8-.4 31.6-.9 1.3-.9 1.8-7.3.7-10.9-.3-.9-1-24.2-1.6-51.7-.8-35.4-1.5-51.6-2.4-55.5-1-3.9-1.6-17.3-2.1-45.9-.6-35.5-1.3-49.8-3.2-65.8-.6-5.1 1-10.2 5.2-16.8 1.7-2.8 5.2-8.2 7.7-12l8.6-14c2.3-3.9 6.4-10.4 9.1-14.5 14.9-23.1 41.1-66.2 41.1-67.6 0-.2-12.8-.4-28.4-.4-25.7 0-28.6.2-30.6 1.8-2.2 1.8-4.9 6.2-13.9 23.2a588.1 588.1 0 0 1-9.3 16.5c-4.8 8.1-16.2 28.6-25.9 46.3-8.2 15.2-8.9 16-8.9 10.3 0-3.9.9-8.8 6.5-34.1.8-3.6 1.7-8.1 2-10 .7-3.8 6.3-30.8 9.6-46l3.4-16c.7-3.6 2.5-11.7 3.9-18l4.2-19.5 6.9-33 7.9-40 .1-3-32.1-.3c-24.9-.2-32.4.1-33.2 1zM1375 208.1c-.5 1.3-2.1 8-3.4 14.9l-11.7 55.5-7.9 37.5-5 24-8.1 38.5c-2.1 10.4-4.3 20.3-4.8 22-.5 1.6-1.3 5-1.6 7.5-.4 2.5-1.5 7.9-2.5 12-1.1 4.1-2.4 10-2.9 13l-3.6 17.5-4.5 21.5-5.6 27-4.9 24c-.8 3.6-1.8 7.6-2.3 9s-1.2 4.7-1.6 7.5c-.4 2.7-1.6 8.4-2.6 12.5s-2.3 10.2-2.8 13.5c-.6 3.3-2.2 11.4-3.7 18l-8.6 41-4.8 23c-1.1 4.4-2.9 12.5-4.1 18s-2.7 11.5-3.2 13.4c-.8 2.6-.7 3.5.3 4.2 1.7 1.1 68 1.2 69.5.1.6-.4 1.8-4.3 2.8-8.7.9-4.4 2.3-10.7 3.1-14s1.8-8.7 2.4-12c1.4-8.5 9-44.7 9.7-46.5.3-.8 1.2-4.9 1.9-9l4-19.5a772.92 772.92 0 0 0 4.1-19.4c.7-4.1 1.8-8.8 2.3-10.5s1.9-8.3 3.1-14.6c1.1-6.3 3-15.2 4-19.8 1.1-4.5 2-9.4 2-10.7s.4-2.6 1-3c.5-.3 8.3-1.7 17.2-3 22.8-3.4 34.2-6.6 48.5-13.9 12.8-6.4 31.3-19.9 39.6-28.9 11.7-12.6 27.1-36.9 33.9-53.2 6.9-16.4 12.4-34 15.3-49l3.8-19c.7-3.5 1.2-14 1.2-25.5-.1-18-.3-20.3-2.8-29.8-3.4-12.8-6.7-20.8-12.4-29.7s-9.1-12.5-17.9-19.1c-10-7.4-19-11.4-34.3-15.1-10.3-2.5-11.7-2.5-55.8-3l-45.2-.5-1.1 2.3zm77.5 74c8.8 2.7 15.6 9.1 17.9 17 4 13.5.5 42.3-9.6 76.9-8.9 30.8-23.9 43.8-51.1 44.3-9.5.2-9.9-.2-7.3-9.2.8-3.1 2.5-10.6 3.6-16.6 1.1-6.1 2.9-14.8 4-19.5s3.8-17.3 6.1-28l10.8-50.6c1.2-5 2.1-10 2.1-11.1 0-1 .7-2.9 1.6-4.2 1.6-2.2 2.1-2.3 8.4-1.7 3.7.3 9.8 1.5 13.5 2.7zm520.7-74.9c-.6.8-1.5 4.1-2.1 7.3-.5 3.3-2.4 12.5-4.1 20.5l-4.1 20.2c-.5 3.2-1.4 6.9-1.9 8.4-.6 1.4-1.5 5.8-2.1 9.7-.6 4-1.7 9.4-2.4 12.2-.8 2.7-2.4 9.9-3.5 16-1.1 6-2.9 14.8-4 19.5l-8 37-7.7 36.5a108.66 108.66 0 0 0-2.3 11 108.78 108.78 0 0 1-1.9 9.3c-.7 2.4-1.8 7.8-2.6 12-.8 4.3-2.3 11.7-3.5 16.7-1.1 4.9-2.9 13.6-4 19.3s-2.2 10.7-2.5 11.2-1.2 4.4-2 8.7c-1.9 10.7-3.2 17-9.4 45.3-1.1 4.7-2.8 13-4 18.5l-8.1 38c-.5 1.6-1.4 6.1-2 10-.6 3.8-1.7 9-2.4 11.5-.8 2.5-1.7 6.5-2 9-.4 2.5-1.3 7.6-2.2 11.5l-5.9 28c-.3 2.2-1.2 6-1.9 8.5-.8 2.5-2 7.8-2.7 11.8-1.1 6.3-1 7.5.2 8.3 2.3 1.4 66.2 1.1 68-.4.9-.6 2.4-4.8 3.3-9.2l3.2-14a215.93 215.93 0 0 0 2.8-14 460.86 460.86 0 0 1 3.6-17.5l8.9-42.5 5-24 9.1-42 4.3-20.5 1.2-5.5 4-.1c6.7-.2 26.9-3.2 33.1-4.9 37.5-10.4 63.9-29.8 86-63.2l5.4-8.7c0-.3 1.3-2.7 2.9-5.5 10-16.9 21-51 25.7-79.6 2.8-16.8 2.6-43.8-.4-57.4-6.1-28-23-49.4-46.5-59.3-4-1.6-11.5-4.1-16.7-5.5-9.4-2.6-9.9-2.6-56.1-3-38.3-.4-46.7-.2-47.7.9zm75.5 74c6.7 1.7 8.9 2.7 12.3 6.1 2.4 2.2 5.4 6.5 6.7 9.6 2.3 5.1 2.4 6.4 2 18.5-.7 22.2-9.2 60.8-16.8 76.3-9.5 19.2-20.8 26.3-46 28.8-6.2.7-6.7.6-7.4-1.4-.3-1.1.1-4.9 1-8.3.9-3.5 2.9-12.8 4.5-20.8l7-33.5 5.6-26.5c2.6-13.3 9.5-45.4 10.2-48 1.3-4.4 6.1-4.6 20.9-.8zM190.6 293.7c-.2.3-7.3 1.3-15.8 2.3-36.6 4.5-40.9 5.2-44.9 8.1-5.4 3.8-6 6.5-2.8 14 3.6 8.2 4.5 8.3 48.4 2.4l16-2.1c7.1-.8 12.2-3.2 14.5-6.9 3.7-6 2.1-12.9-3.8-15.9-2.9-1.4-10.7-2.7-11.6-1.9zM295 316.1c-4.1.5-8.8 1.3-10.4 1.9-1.6.5-3.8 1-5 1s-5.3 1.5-9.3 3.3c-10.7 4.8-16.9 11.1-23.1 23.8-4.9 10-5.8 12.9-8.3 24.9-2.4 12.2-2.7 22.6-2.2 71.5.3 28 0 71-.5 95.5l-1.1 44.5-3.2 8-6.4 15c-1.8 3.8-4.2 9.5-5.4 12.5-2.2 5.5-5.2 12-8.8 19.5-1.1 2.2-3.7 8-5.8 13l-10 23.5c-3.5 8-6.6 15.5-6.9 16.7-.4 1.1-1.3 2.7-2.1 3.3-.8.7-1.5 2.2-1.5 3.4 0 1.1-.8 3.4-1.8 5.1-1 1.6-3.6 7-5.7 12-2 4.9-6.2 14.5-9.1 21.1-3 6.7-5.4 12.6-5.4 13-.1.5-1 2-2 3.3-2.1 2.5 0 2.1-38 6.6l-23.5 2.9c-6 .8-14.4 1.7-18.5 2.1-4.1.3-11.5 1.2-16.5 2-4.9.7-13.9 1.9-20 2.5-15.6 1.7-29.2 3.7-30.6 4.6-.6.3-2 2.6-3.1 5-2.3 5.3-1.3 10.6 2.8 14.4 2.2 2.2 3.5 2.5 9.7 2.4 4 0 16.4-1.2 27.7-2.6l54.5-6.7L147 780c4.1-.6 15.4-1.9 25-3l25-3c4.1-.6 18.8-2.4 32.5-4l36.5-4.5c6.3-.9 21-2.7 32.5-4.1l65-7.9 53-6.1c2.8-.3 7.3-.9 10-1.5 2.8-.5 11.3-1.6 19-2.4s22.6-2.6 33-4c26.6-3.5 47.9-5.6 51.2-4.9 1.6.3 5.6-.4 9.2-1.5 3.5-1.2 7.4-2.1 8.7-2.1s5.4-.4 9.1-1l27.8-3.5 93.2-11.5c3.4-.5 7.3-1.6 8.7-2.5 4.7-3.1 5.6-12.5 1.9-18.2-2.2-3.4-9.4-3.8-27.3-1.4l-25.5 3.1c-5.5.5-13.4 1.5-17.5 2l-23.5 3-29.5 3.7c-7.4.9-15.5 1.7-18 1.8h-4.5l-.6-6-2.8-29.5-4.1-42-4-40-3.4-35-2.1-20.5c-.3-3.9-1.2-13.1-2-20.5-3.5-32.4-5.6-56-5-57 .3-.5 1.5-1 2.7-1 1.1 0 6-.9 10.8-2.1 7.7-1.8 9.4-2.6 13.9-6.7 4.1-3.7 5.7-6.1 7.7-11.7 3.5-9.3 4.4-24.1 2-30-.9-2.2-2.1-6-2.7-8.4-.5-2.4-2.3-5.9-3.9-7.8-1.7-1.9-3-3.8-3-4.2 0-.5-2.4-2.4-5.2-4.2-5.1-3.3-5.6-3.4-18.3-3.9l-13-.5-1-4c-.5-2.2-1.3-4.5-1.7-5.1-.5-.7-.7-2.3-.7-3.5.2-3.8-2.8-13.7-5.1-16.9-3.8-5.3-8.4-6.3-14.6-3.4-2.4 1.1-3.8 2.8-5 5.9-1.7 4.6-1.7 5.3 1 17.9 1.3 5.7 1.4 8.2.6 9-.6.6-6.7 1.2-15 1.4-15.9.5-16.9.2-27.5-6.9-3.8-2.6-9.4-5.8-12.2-7.2-2.9-1.4-7.4-4.1-10-6-2.7-1.9-6.8-4.5-9.3-5.7-2.5-1.3-13.5-7.7-24.5-14.3l-25-14.7-8.4-4.8c-3.2-2-4.8-2.1-26-2-12.4 0-26 .4-30.1.9zm51.5 26.7c2.8 1.3 7.9 4.4 11.5 6.7s10.8 6.6 16 9.5c5.2 3 12.4 7.3 16 9.6s9 5.4 12 6.9 6.9 3.8 8.5 5c1.7 1.3 6.7 4.3 11 6.7l17.6 10.1 9.5 5.7 13.4-1c7.4-.5 24.9-1.3 39-1.6 24.3-.6 25.6-.6 27.9 1.3 3 2.4 4.4 10.2 3.5 19.5l-.7 6.8-3.6.5c-2 .3-5.5 1-7.8 1.5-7.9 1.8-34.8 3.2-52.1 2.8-15.7-.4-17.6-.7-20.2-2.6-1.6-1.2-3.2-2.2-3.4-2.2-.3 0-2.9-1.5-5.8-3.4-2.9-1.8-8.7-5-12.8-7.1s-10-5.4-13-7.3c-3-2-9.3-5.6-14-8a727.15 727.15 0 0 1-18-10c-22.4-13.1-28.8-16.2-33-16.2-7.9 0-10.9 3.1-10.9 11 0 3 .5 6.2 1.2 7 2.1 2.7 8.7 7.4 15.6 11l6.6 3.5-.3 8c-.4 9.7-2.5 37.1-5.2 67.5l-2 25.2c0 1.8 1.9 5 5.8 9.7l14.2 17.6 14 17.4 13 16.1 12.5 15.4c2.8 3.4 6.4 7.9 8 10.1s4.4 5.7 6.3 7.7c3.2 3.4 3.4 3.9 2.3 6.9-.6 1.7-1.1 4.5-1.1 6s-.7 5.4-1.5 8.5c-.8 3.2-1.9 9.3-2.5 13.6-.5 4.2-1.6 10.8-2.4 14.5-.8 3.8-2.7 13.1-4 20.8l-5.1 27.5-3.1 17.7c-.7 4.8-.9 4.9-10.4 5.8-3.6.4-8.1 1-10 1.5s-7.4 1.1-12.2 1.5l-8.8.7v-2.6c0-2.5 2.4-17.1 6.5-40.1l2.6-15.4c.5-3.5 1.2-6.8 1.5-7.3.4-.6 1-3.5 1.4-6.6.4-3.2 1.4-8.5 2.1-11.9 2-9.8.6-12.7-11.5-25.3l-21-22.5-17-18.5-13.4-14.3c-4-4.3-8.3-8.2-9.5-8.6-1.3-.5-4.4-.5-7.4.1-4.6.9-5.2 1.4-7.3 5.5-3.2 6.5-2.2 9.9 5.3 18.1 13.8 14.9 20.7 23 20.7 24.6 0 1.7-1.9 5.7-13.8 28.8-4.4 8.6-9.6 18.1-11.6 21.1-1.9 3.1-8.2 14.7-13.9 25.9S270 701.6 268.4 704c-1.5 2.5-6.2 11-10.2 19-8.9 17.2-10.6 19.8-13.5 20.5-4.8 1.1-54.8 6.7-55.3 6.2-.6-.6 7.9-20.7 12.9-30.5 1.5-3 2.7-6.1 2.7-6.9s2.9-7.7 6.4-15.2 8-17.6 10-22.5c2-4.8 5.2-11.9 7-15.6 1.9-3.7 3.9-8.5 4.6-10.6s4-9.8 7.2-16.9l8.8-19.9c0-.4 1.5-3.9 3.4-7.9 7.1-15 6.6-11.9 7.7-53.7.6-21.2.9-67.1.7-102-.3-63.2-.3-63.6 2-73.4 3.1-13.7 9.2-25.3 14.8-28.3 8.2-4.5 31-7.4 51.9-6.5 10.2.4 12.7.8 17 3zm54 88.5c6.6 3.8 16.7 9.4 22.5 12.5 5.8 3 12.5 6.8 14.9 8.4 5.9 4 11.9 4.8 34.6 4.8 10.5 0 19.6.4 20.3.8.7.5 1.5 2.4 1.7 4.3.8 6.4 3 29.9 5.5 59.9l3 31 3 29 3 28.5c1.1 9.9 2.4 24.1 3 31.5l1.5 16c.3 1.4 1.1 9.9 1.9 19 2.8 31.6 2.8 33 1.4 33.4-.7.2-7.4 1.1-14.8 2l-68.6 7.4c-.3-.4-.1-2.2.5-4 1.2-3.3 1.5-4.8 4.6-22.3l10-53.5c.8-3.6 1.7-8.3 2-10.5s1.5-9.2 2.7-15.6c2.4-13.1 2-15.3-3.5-21.6l-5.6-6.7c-1.4-1.9-7.1-8.9-12.6-15.6l-33.2-41.2-16.9-20.6c-4.6-5.2-4.6-5.3-3.6-9.5.6-2.3 1.1-5.6 1-7.2 0-3.3 2.7-34.8 4.2-48.5.6-4.7 1-10.8 1-13.6 0-7.9-.6-8 16.5 1.9zm-51.3 200.4l7.9 7.8-.6 6c-.3 3.3-1.5 10.9-2.5 17l-4.5 27-4 23c-.8 3.8-1.7 9.1-2 11.6-1 7.6-1 7.7-20 9.9l-28.3 3.5c-14.8 1.9-16.2 1.9-16.2-.2s13.1-28 17.2-34c1.5-2.3 7.6-13.5 13.4-25 5.8-11.4 11.6-22.4 12.9-24.3 2.7-4.3 13.5-23.8 13.5-24.5 0-1.3 3.3-5.5 4.3-5.5.5 0 4.6 3.5 8.9 7.7zm-62.3-250.6c-.7 1.3-1.4 13.1-1.9 31.3l-2.1 67-1.2 37.9 2.3 1.9c3.1 2.5 6.6 2.3 8.5-.5 1.7-2.6 3-33.2 4.1-100.4.6-28.6.4-36.6-.6-37.8-1.9-2.3-7.7-1.9-9.1.6zm2846.6-59c-13.4 2.4-21.3 4.3-24 5.9-1.6 1-4.1 2.1-5.5 2.5-3.5 1.1-16.6 10.1-22.1 15.2-2.6 2.4-5.9 6.1-7.4 8.3s-3.1 3.8-3.5 3.5.6-6.8 2.2-14.6 2.6-14.5 2.1-15c-.4-.4-14.9-.9-32.2-.9-24.9-.1-31.6.1-32.6 1.2-.7.7-4.3 15.7-7.9 33.3l-17.1 81c-1.5 6.6-4.4 20.5-6.5 31l-11.4 53.5c-.3.8-1.2 5.1-2 9.5s-3.5 17.4-6.1 29l-7 33-6 29-5.1 23.5c-.7 3.6-2.4 11.7-3.8 18-2.2 10.5-2.3 11.6-.8 12.7 1.9 1.6 58.6 1.9 62.5.4 2.6-1 2.6-1.1 5.6-16.1l9.6-46c.2-.4 2.3-9.8 4.5-21.1l9.9-47.9c1.2-5.2 3.5-16.2 5.2-24.5l21.3-98.1c4.7-13.3 13.3-22.5 28-29.9l9.8-5h16.8c9.3 0 17.2-.3 17.5-.7.4-.4 1.9-6.4 3.5-13.5l9-43.8c1.1-5.4 2-10.9 2-12.2 0-2.5-.5-2.6-8.5-1.2zm-275.5 2.3c-12.8 2.7-21.1 6.5-31 14.1-30.4 23.3-45 49.8-55.5 100.5l-12.9 61-5.1 24c-2.7 13.5-8.4 39.3-11.5 53-5.1 22-6.3 44.8-3.4 62.1 2.2 12.4 6.9 22 15.3 31.1 5.3 5.7 7.9 7.6 15.5 11.2 11.2 5.4 19.5 7 35.6 6.9 25.3-.1 40.5-5.2 59.2-20.2 27.5-21.9 39.8-46.1 50.3-98.9 1.5-7.3 2.4-13.6 2.1-13.9-.9-.9-59.8-.5-60.8.5-.5.5-1.9 6-3.3 12.3l-5 22.9c-5.7 25.4-16.2 39-30.4 39-7.5 0-11.7-2.8-14.7-9.7-3.1-7-3.3-21.6-.5-33.1l4-18.2c4.4-21 10.1-45.8 11.2-48.8l.9-2.2 51.2-.1 53.8-.8c1.6-.4 2.7-1.7 3.2-3.6 2.2-9.3 6.3-29 10.7-51l5-23.5c5.7-24.2 6.5-30.1 6.5-47 0-15.2-.2-17.2-2.8-26-4.8-15.9-9.4-23.4-18.8-30.6-16.1-12.2-42.8-16.5-68.8-11zm20.9 57.9c1.4.7 3.5 3.2 4.8 5.7 2.2 4.1 2.3 5.4 2 16.5-.3 8.3-1.2 15.4-3 23l-5.3 23c-1.8 8.3-3.3 12.5-4.6 13.7-1.8 1.6-4.4 1.8-21.7 1.8-22.8 0-23.5-.2-22.1-6.5l2.8-13c5.6-26.6 8.4-37 12.1-44.9 3.8-8.2 10.3-16.5 14.5-18.9 5.1-2.7 15.2-2.9 20.5-.4zm-1180.4-58.6c-20.2 2.5-43.7 15.9-56.2 32-1.4 1.8-2.9 3.1-3.3 2.8-.4-.2.6-6.5 2.3-13.9 1.6-7.4 2.7-14.1 2.4-15-.6-1.5-4-1.6-32.9-1.4l-32.2.3-1.2 4.5c-1.9 7.6-17.9 82.2-24.4 114l-3.5 16.5-4.5 21.5-19.5 92.5-4 19.2-2.9 13.5c-.8 3.4-2.6 11.9-4.1 18.8l-4.5 21.5-3 15c-.6 3.3-1.8 8.4-2.7 11.4-1.2 4.5-1.3 5.5-.1 6.2 1.4 1 64.3.8 65.2-.2.3-.3 1.7-6.2 3.1-13l4.5-21.9 4.1-19 3.9-18.5 10.5-51 16.1-76 3.4-15.5c1.1-4.7 2.9-13.7 4.1-20 2.8-15 5-21.9 8.9-28 4.9-7.6 14.3-15.6 24-20.3l8.5-4.2 17-.2c9.3-.2 17.5-.5 18.1-.7s1.5-2.6 1.8-5.3c.4-2.6 1.6-8.4 2.6-12.8s2.8-13.2 4-19.5a682.41 682.41 0 0 1 4.6-21.8c1.3-5.7 2.2-10.8 1.8-11.3-.5-.9-5.9-1-11.9-.2zm96 1.7c-12.5 2.8-19.4 6-29.8 14-17.4 13.4-30.1 28.7-39 46.9-8.9 18.3-12.2 30.5-26.2 98.2l-5.9 28c-1.9 8.3-6.1 28.2-8.1 38l-3.5 16c-10.1 42.3-10.7 64.5-2.4 86.2 10.3 27.1 36.4 40 73.5 36.2 22.6-2.2 36.3-8.7 56.7-26.7 5.7-5.1 13.3-14.3 18.6-22.6 7.7-12.1 15.5-31.6 19-47.6l7-35.4c.1-1-60.2-1.2-61.2-.2-.3.4-1.3 4.3-2.2 8.9-4.3 21.2-8.5 37.6-11.1 44-5.4 13.1-15.3 21.7-25 21.7-5.4 0-12.3-3.1-14-6.1-3.5-6.6-4.8-19.6-3-29.9 1.1-6.1 11.3-52.2 13-59 .5-1.9 1.2-5.5 1.6-8s1.3-5.5 2.1-6.7l1.4-2.2 52.9-.3 53.6-1c.4-.4 2-6.9 3.6-14.5l6-28.3 8.2-39 5.2-24.5v-19c-.1-18.8-.1-19.1-3.4-28.9-6.6-19.9-16.2-29.4-36.4-36.4-9.6-3.4-11.1-3.6-25.2-3.9-12.9-.2-16.5 0-26 2.1zm17.3 56.7c5.9 1.4 8.7 4.4 10.8 11.6 1.5 5 1.5 7 .5 15.7-1.9 15.1-10.3 54.2-12.1 56-1.2 1.2-36.2 2.2-41.8 1.1-3.3-.6-3.4-.7-2.9-4.8.4-4.2 5.9-28.8 9.7-44.2 4.4-17.6 14.3-32 23.9-35 5.8-1.7 6.2-1.7 11.9-.4zM2246 324c-15.8 3.8-17 4.3-29.5 10.6-25.2 12.7-47.6 38.7-58.5 67.7-3 8.1-6 20.1-6.3 25.4l-.2 4.8 31.9.3c22 .1 32.3-.1 33.2-.9.7-.6 1.6-3.2 1.9-5.7 1.2-10.2 7.6-29.1 12.2-36 4.4-6.8 10.1-9.7 17.6-8.9 4.1.4 5.6 1 8 3.7 2.9 3.2 2.9 3.3 2.4 13.9-.4 10.6-7 44.1-10.2 51.7-2 4.8-8.6 9.1-30.3 19.8-10.5 5.2-20.1 10.1-21.4 11-1.2.9-2.6 1.6-2.9 1.6-.9 0-13.7 8.2-20.4 13-19 13.6-36.1 33.1-47.3 53.9l-6.2 11.9c0 .2-1.1 3-2.4 6.1-8.4 19.9-13.5 44.7-13.7 66.1-.1 11.8.2 16 2 22.6 4.6 18 13.7 28 28.8 31.8 5.6 1.5 7 1.5 15 .1 10.8-1.9 11.5-2.1 18.3-5.3 10.1-4.8 18.6-11 26.4-19.3 4.6-4.8 8.2-7.9 9-7.6 1.1.4 1.3 2.8.9 11.4-.4 7.4-.2 11.6.6 13.1l1.2 2.2 32.7-.2 32.7-.3.7-12.1c.7-12 3.7-31 7.8-49.4 2.3-10.2 2.9-13.1 6.6-31.5 2.5-13.1 6.1-29.6 9.4-44.5 1.2-5.2 2.8-12.9 3.5-17.1.8-4.2 2.1-10.5 2.9-14 .9-3.5 3.4-15.4 5.6-26.4l12.9-61c5.1-22.5 6.4-31.1 6.3-42.3-.1-15.6-4.2-27.2-13.8-38.9-5.4-6.7-8.6-9.4-16.5-13.9-11.1-6.3-16.6-7.6-32.9-8-8-.1-16.1.1-18 .6zm-11 194.1c0 1.5-.6 4.8-1.4 7.1-.8 2.4-1.7 6.8-2.1 9.8s-1.3 8-2 11c-1.9 7.5-7.3 32.3-9.6 44.5-2.8 14.3-4.4 18.6-8.8 23.1-6.3 6.3-13.6 9.4-22 9.5-4.9.1-7.9-.4-9.5-1.5-2.7-1.7-6.6-12-6.6-17.4 0-5.8 6.7-30.2 10.7-39.2 9.6-21.5 25.2-38.5 44.7-48.8 4.6-2.5 6.6-1.9 6.6 1.9zm213.5-193.2c-20.6 4.5-36.6 14.1-50.5 30.4-11.7 13.7-17.8 25.4-25.6 48.5-3.9 11.6-6.3 22-16.9 72.7l-13.5 63-3.5 16.5-4 19.5c-6.4 29.4-7.7 54.1-3.7 70.2 5.2 20.4 15.5 31.9 35.1 39.1 6 2.2 20.5 4.4 29.1 4.5 9.3 0 29.3-2.6 36.7-4.9 24.8-7.6 41.9-23.4 54.6-50.4 6.8-14.6 9.4-23 15.1-49l3.6-16.3c1.1-4.9 2-10.6 2-12.8V552h-31.9c-24.3 0-32.1.3-32.9 1.2-.6.7-3.3 12.8-6.1 26.8-2.9 14-6.1 28.3-7.2 31.7-2.6 7.8-7 14-11.4 15.9-4.5 1.8-14.8 1.8-18.4-.1-5.2-2.7-6.5-12.6-3.5-26.7l4-18.8 17.3-81.5 5.2-24.5 3.4-16 3.9-17.5c1.4-6.1 3.7-17.1 5.2-24.5 5.7-28.9 10.7-36 25.1-36 9 0 9.9.4 12.3 5.1 3.2 6.2 2.5 13.7-4.2 44-2.3 10.3-3.8 19.4-3.5 20.3.6 1.5 3.6 1.7 32.3 1.4 35.7-.3 33.7.2 35-8.7.3-2.5 1.4-8 2.5-12.1 7.6-30.5 8.6-60.2 2.5-76.4-3.2-8.4-8.5-16.7-12.9-20-5.4-4.2-14.4-8.1-23.6-10.5-11.2-2.8-39.2-2.9-51.6-.2z"/><path d="M135.5 339.1c-1.9.9-12.6 20.7-17.5 32.4-1.1 2.7-2.5 5.7-3 6.5-.6.8-1.5 2.6-2.1 4s-2.6 5.6-4.4 9.5c-1.8 3.8-3.7 8.1-4.1 9.5-.3 1.4-1.6 3.8-2.7 5.5-2 2.7-2.1 4.1-1.9 21.5l.7 28 3 71.5 1.4 37 4 3.7c4 3.8 4 3.8 12.9 3.8 4.8 0 14.6.4 21.8 1 29.9 2.2 56.9 3.2 59.4 2.2 1.5-.6 3.4-2.8 4.7-5.3 2.6-5.4 3-11.2 4.3-73.4l1.5-65c2.6-86.8 2.7-83.8-1.8-89.1-2.2-2.5-2.7-2.6-18.7-3.4-22-1.2-55-1.1-57.5.1zm46.2 23.9h9.3v10.4c0 5.8-.4 10.7-.9 11-1 .6-8.2-4.5-14.1-9.9-7.4-6.8-11.6-8.1-15.2-4.8-4 3.6-1.4 7.6 11.2 17 3 2.3 8.3 6.7 11.8 9.8l6.2 5.7v7.6c0 4.3-.3 8.7-.6 9.9-.6 2.1-.8 2.2-3.5.7-1.6-.8-2.9-1.8-2.9-2.3s-3.8-5.3-8.5-10.7C157 387 157 387 153.9 387c-4 0-7 3.1-6.1 6.4.6 2.3 8.6 12.1 20.3 25 2.6 2.8 8.2 9.4 12.5 14.6l7.9 9.5-.3 18.5c-.2 10.2-.7 18.9-1.2 19.3-.4.5-1.8-.6-3.1-2.5-1.3-1.8-5.1-6.3-8.4-9.9-11.8-12.8-21-23.2-23.1-26.1-4.6-6.2-15.5-16.8-17.3-16.8-2.9 0-7.3 5.7-6.1 7.8 1.7 3.1 8.4 11.1 20.5 24.3 11.7 12.8 15 16.5 30.4 34.4l7.4 8.6-.2 13.7c-.1 7.5-.3 13.8-.5 13.9-.1.2-3.6-3.9-7.7-8.9-4-5.1-8.5-10.7-10-12.3-2.7-3-9.3-11.4-16.9-21.2-4.3-5.7-7.7-7.2-11.6-5.4-6 2.7-3.4 6.8 28.1 44.7 1.9 2.3 5.6 6.9 8.1 10.3s5.9 7.5 7.5 9.1c6.5 6.4 3.7 7.2-20.7 6-26.6-1.4-34.5-2.2-34.9-3.4-.3-1-2.1-51.1-4.1-112.6l-.6-19.5 2.7-5.5 19.9-39.5c.9-1.7 1.6-3.5 1.6-4.2 0-2.7 3.5-3.4 13.9-2.8 5.7.3 14.6.5 19.8.5z"/></svg>